<svg width="22.000000" height="22.000000" viewBox="0 0 22 22" fill="none" xmlns="http://www.w3.org/2000/svg" xmlns:xlink="http://www.w3.org/1999/xlink">
	<desc>
			Created with Pixso.
	</desc>
	<defs>
		<clipPath id="clip5_4134">
			<rect id="Frame" rx="0.000000" width="10.000000" height="10.000000" transform="matrix(1 0 0 -1 6 17)" fill="white" fill-opacity="0"/>
		</clipPath>
		<clipPath id="clip5_4133">
			<rect id="span.qodef-icon-holder" rx="10.500000" width="21.000000" height="21.000000" transform="translate(0.500000 0.500000)" fill="white" fill-opacity="0"/>
		</clipPath>
	</defs>
	<rect id="span.qodef-icon-holder" rx="10.500000" width="21.000000" height="21.000000" transform="translate(0.500000 0.500000)" fill="#8E8B8C" fill-opacity="1.000000"/>
	<g clip-path="url(#clip5_4133)">
		<g clip-path="url(#clip5_4134)">
			<path id="Vector" d="M6.89 16.47L6.89 10.98L5.51 10.98L5.51 9.09L6.89 9.09L6.88 7.98C6.88 6.43 7.3 5.5 9.12 5.5L11 5.5L11 7.39L9.69 7.39C8.98 7.39 8.95 7.65 8.95 8.14L8.94 9.09L11.01 9.09L10.81 10.98L8.94 10.98L8.94 16.47L6.89 16.47Z" fill="#FFFFFF" fill-opacity="1.000000" fill-rule="nonzero"/>
		</g>
	</g>
</svg>

