<svg width="16.435547" height="17.805420" viewBox="0 0 16.4355 17.8054" fill="none" xmlns="http://www.w3.org/2000/svg" xmlns:xlink="http://www.w3.org/1999/xlink">
	<path id="Vector" d="M2.39 2.46C2.39 2.46 2.79 2.05 3.59 1.23C4.39 0.41 5.93 0 8.21 0C10.5 0 12.44 0.82 14.03 2.46C15.63 4.1 16.43 6.09 16.43 8.43L16.43 14.98C16.43 15.75 16.16 16.41 15.62 16.97C15.08 17.52 14.43 17.8 13.69 17.8L10.95 17.8L10.95 10.27L14.59 10.27L14.59 8.43C14.59 6.6 13.97 5.05 12.73 3.78C11.49 2.51 9.98 1.88 8.21 1.88C6.44 1.88 4.94 2.51 3.7 3.78C2.46 5.05 1.84 6.6 1.84 8.43L1.84 10.27L5.47 10.27L5.47 17.8L2.73 17.8C1.99 17.8 1.35 17.52 0.81 16.97C0.27 16.41 0 15.75 0 14.98L0 8.43C0 6.09 0.79 4.1 2.39 2.46Z" fill="#000000" fill-opacity="1.000000" fill-rule="nonzero"/>
</svg>
