<svg width="22.000000" height="22.000000" viewBox="0 0 22 22" fill="none" xmlns="http://www.w3.org/2000/svg" xmlns:xlink="http://www.w3.org/1999/xlink">
	<desc>
			Created with Pixso.
	</desc>
	<defs>
		<clipPath id="clip5_4138">
			<rect id="Frame" rx="0.000000" width="10.000000" height="10.000000" transform="matrix(1 0 0 -1 6 16)" fill="white" fill-opacity="0"/>
		</clipPath>
		<clipPath id="clip5_4137">
			<rect id="span.qodef-icon-holder" rx="10.500000" width="21.000000" height="21.000000" transform="translate(0.500000 0.500000)" fill="white" fill-opacity="0"/>
		</clipPath>
	</defs>
	<rect id="span.qodef-icon-holder" rx="10.500000" width="21.000000" height="21.000000" transform="translate(0.500000 0.500000)" fill="#8E8B8C" fill-opacity="1.000000"/>
	<g clip-path="url(#clip5_4137)">
		<g clip-path="url(#clip5_4138)">
			<path id="Vector" d="M5.53 7.93L5.53 15.47L7.56 15.47L7.56 7.93L5.53 7.93ZM11.74 7.93C12.45 7.93 14.52 8.22 14.52 10.79L14.52 15.47L12.37 15.47L12.37 10.72C12.37 10.16 12.05 9.78 11.37 9.78C10.23 9.78 10.31 10.72 10.31 10.72L10.31 15.47L8.26 15.47L8.26 7.93L10.31 7.93L10.31 8.52C10.62 8.28 11 7.93 11.74 7.93ZM5.51 6.21C5.51 5.64 5.97 5.18 6.54 5.18C7.1 5.18 7.56 5.64 7.56 6.21C7.56 6.78 7.1 7.24 6.54 7.24C5.97 7.24 5.51 6.78 5.51 6.21Z" fill="#FFFFFF" fill-opacity="1.000000" fill-rule="nonzero"/>
		</g>
	</g>
</svg>
