<svg width="18.375000" height="18.375000" viewBox="0 0 18.375 18.375" fill="none" xmlns="http://www.w3.org/2000/svg" xmlns:xlink="http://www.w3.org/1999/xlink">
	<desc>
			Created with Pixso.
	</desc>
	<defs/>
	<path id="" d="M16.83 1.53C17.9 2.6 18.23 3.91 18.31 5.39C18.39 6.91 18.39 11.46 18.31 12.98C18.23 14.45 17.9 15.72 16.83 16.83C15.77 17.9 14.45 18.23 12.98 18.31C11.46 18.39 6.91 18.39 5.39 18.31C3.91 18.23 2.64 17.9 1.53 16.83C0.47 15.72 0.14 14.45 0.06 12.98C-0.03 11.46 -0.03 6.91 0.06 5.39C0.14 3.91 0.47 2.6 1.53 1.53C2.64 0.47 3.91 0.14 5.39 0.06C6.91 -0.03 11.46 -0.03 12.98 0.06C14.45 0.14 15.77 0.47 16.83 1.53ZM14.62 16.34C15.4 16.01 16.05 15.4 16.34 14.58C16.76 13.57 16.73 11.34 16.71 9.86C16.71 9.6 16.71 9.37 16.71 9.16C16.71 8.97 16.71 8.74 16.71 8.48C16.73 7.03 16.76 4.79 16.34 3.75C16.01 2.97 15.4 2.31 14.62 2.03C13.57 1.61 11.34 1.63 9.88 1.65C9.63 1.65 9.4 1.66 9.2 1.66C9 1.66 8.76 1.65 8.5 1.65C7.02 1.63 4.8 1.61 3.79 2.03C2.97 2.35 2.35 2.97 2.03 3.75C1.61 4.79 1.63 7.03 1.65 8.48C1.65 8.74 1.66 8.97 1.66 9.16C1.66 9.37 1.65 9.6 1.65 9.86C1.63 11.34 1.61 13.57 2.03 14.58C2.35 15.4 2.97 16.01 3.79 16.34C4.8 16.76 7.02 16.73 8.5 16.71C8.76 16.71 9 16.71 9.2 16.71C9.4 16.71 9.63 16.71 9.88 16.71C11.34 16.73 13.57 16.76 14.62 16.34ZM14.08 3.17C14.7 3.17 15.19 3.67 15.19 4.28C15.19 4.9 14.7 5.39 14.08 5.39C13.47 5.39 12.98 4.9 12.98 4.28C12.98 3.67 13.47 3.17 14.08 3.17ZM4.49 9.16C4.49 6.58 6.58 4.45 9.2 4.45C11.79 4.45 13.92 6.58 13.92 9.16C13.92 11.79 11.79 13.88 9.2 13.88C6.58 13.88 4.49 11.79 4.49 9.16ZM6.13 9.16C6.13 10.88 7.52 12.24 9.2 12.24C10.88 12.24 12.24 10.88 12.24 9.16C12.24 7.48 10.88 6.13 9.2 6.13C7.48 6.13 6.13 7.48 6.13 9.16Z" fill="#969696" fill-opacity="1.000000" fill-rule="evenodd"/>
</svg>
