<svg width="14.250000" height="15.000000" viewBox="0 0 14.25 15" fill="none" xmlns="http://www.w3.org/2000/svg" xmlns:xlink="http://www.w3.org/1999/xlink">
	<desc>
			Created with Pixso.
	</desc>
	<defs/>
	<path id="Vector" d="M14.15 14.37L9.69 9.5C10.69 8.45 11.25 7.08 11.25 5.62C11.25 4.12 10.66 2.7 9.6 1.64C8.53 0.58 7.12 0 5.62 0C4.12 0 2.7 0.58 1.64 1.64C0.58 2.71 0 4.12 0 5.62C0 7.12 0.58 8.54 1.64 9.6C2.71 10.66 4.12 11.25 5.62 11.25C6.91 11.25 8.14 10.81 9.14 10.01L13.59 14.87C13.67 14.95 13.77 15 13.87 15C13.96 15 14.05 14.96 14.12 14.9C14.28 14.76 14.29 14.52 14.15 14.37L14.15 14.37ZM0.74 5.62C0.74 2.93 2.93 0.75 5.62 0.75C8.31 0.75 10.49 2.93 10.49 5.62C10.49 8.31 8.31 10.5 5.62 10.5C2.93 10.5 0.74 8.31 0.74 5.62Z" fill="#000000" fill-opacity="1.000000" fill-rule="nonzero"/>
</svg>
