<svg width="19.960938" height="19.960938" viewBox="0 0 19.9609 19.9609" fill="none" xmlns="http://www.w3.org/2000/svg" xmlns:xlink="http://www.w3.org/1999/xlink">
	<path id="Vector" d="M9.98 0C15.49 0 19.96 4.46 19.96 9.98C19.96 15.49 15.49 19.96 9.98 19.96C4.46 19.96 0 15.49 0 9.98C0 4.46 4.46 0 9.98 0ZM12.05 12.24L7.45 10.02C7.45 9.99 7.45 9.96 7.45 9.93L12.05 7.71C12.36 7.95 12.74 8.09 13.16 8.09C14.17 8.09 15 7.26 15 6.24C15 5.22 14.17 4.4 13.16 4.4C12.14 4.4 11.31 5.23 11.31 6.24L11.31 6.25L6.76 8.44C6.45 8.19 6.05 8.04 5.61 8.04C4.6 8.04 3.77 8.87 3.77 9.89C3.77 10.9 4.6 11.73 5.61 11.73C5.98 11.73 6.32 11.62 6.61 11.43L11.31 13.71L11.31 13.71C11.31 14.73 12.14 15.55 13.16 15.55C14.17 15.55 15 14.73 15 13.71C15 12.69 14.17 11.86 13.16 11.86C12.74 11.86 12.36 12 12.05 12.24Z" fill="#8E8B8C" fill-opacity="1.000000" fill-rule="nonzero"/>
</svg>
