<svg width="22.354492" height="18.677124" viewBox="0 0 22.3545 18.6771" fill="none" xmlns="http://www.w3.org/2000/svg" xmlns:xlink="http://www.w3.org/1999/xlink">
	<path id="Vector" d="M8.81 2.91C9.16 3.07 9.33 3.34 9.33 3.73L9.33 14.94C9.33 15.33 9.16 15.6 8.81 15.75C8.65 15.83 8.52 15.87 8.4 15.87C8.24 15.87 8.05 15.79 7.82 15.64L4.02 12.6L0.93 12.6C0.31 12.6 0 12.29 0 11.67L0 7C0 6.38 0.31 6.07 0.93 6.07L4.02 6.07L7.82 2.97C7.97 2.85 8.17 2.8 8.4 2.8C8.52 2.8 8.65 2.84 8.81 2.91ZM22.35 9.33C22.35 12.87 21.08 15.91 18.56 18.44C18.4 18.59 18.22 18.67 18.03 18.67C17.87 18.67 17.72 18.59 17.56 18.44C17.21 18.13 17.21 17.8 17.56 17.45C19.82 15.27 20.95 12.56 20.95 9.33C20.95 6.1 19.82 3.4 17.56 1.22C17.21 0.87 17.21 0.54 17.56 0.23C17.91 -0.08 18.24 -0.08 18.56 0.23C21.08 2.76 22.35 5.79 22.35 9.33ZM15.99 2.62C17.78 4.49 18.67 6.73 18.67 9.33C18.67 11.94 17.78 14.18 15.99 16.05C15.83 16.2 15.66 16.28 15.46 16.28C15.31 16.28 15.15 16.2 15 16.05C14.64 15.7 14.62 15.36 14.94 15.05C16.49 13.5 17.27 11.59 17.27 9.33C17.27 7.08 16.49 5.17 14.94 3.61C14.62 3.3 14.64 2.97 15 2.62C15.35 2.27 15.68 2.27 15.99 2.62ZM13.01 5.01C14.18 6.26 14.76 7.7 14.76 9.33C14.76 10.97 14.18 12.41 13.01 13.65C12.89 13.77 12.72 13.83 12.49 13.83C12.29 13.83 12.13 13.77 12.02 13.65C11.71 13.34 11.71 13.01 12.02 12.66C12.91 11.77 13.36 10.66 13.36 9.33C13.36 8.01 12.91 6.9 12.02 6.01C11.71 5.66 11.71 5.33 12.02 5.01C12.33 4.7 12.66 4.7 13.01 5.01Z" fill="#000000" fill-opacity="1.000000" fill-rule="nonzero"/>
</svg>
