<svg width="22.435547" height="15.750000" viewBox="0 0 22.4355 15.75" fill="none" xmlns="http://www.w3.org/2000/svg" xmlns:xlink="http://www.w3.org/1999/xlink">
	<desc>
			Created with Pixso.
	</desc>
	<defs/>
	<path id="" d="M19.97 0.49C20.91 0.73 21.69 1.51 21.94 2.5C22.43 4.22 22.43 7.91 22.43 7.91C22.43 7.91 22.43 11.56 21.94 13.33C21.69 14.31 20.91 15.05 19.97 15.29C18.21 15.75 11.23 15.75 11.23 15.75C11.23 15.75 4.22 15.75 2.46 15.29C1.51 15.05 0.73 14.31 0.49 13.33C0 11.56 0 7.91 0 7.91C0 7.91 0 4.22 0.49 2.5C0.73 1.51 1.51 0.73 2.46 0.49C4.22 0 11.23 0 11.23 0C11.23 0 18.21 0 19.97 0.49ZM14.76 7.91L8.94 4.59L8.94 11.23L14.76 7.91Z" fill="#969696" fill-opacity="1.000000" fill-rule="evenodd"/>
</svg>
