<svg viewBox="0 0 45.3751 45.0027" xmlns="http://www.w3.org/2000/svg" xmlns:xlink="http://www.w3.org/1999/xlink" width="45.375122" height="45.002686" fill="none" customFrame="#000000">
	<g id="Сочетание 1">
		<path id="Форма 1" d="M11.693 11.6743C11.7463 17.3809 11.7965 23.0909 11.8499 28.7975" stroke="rgb(0,0,0)" stroke-width="0.75" />
		<path id="Форма 2" d="M11.693 11.8285C14.4889 13.6334 18.2575 13.5127 20.8211 11.5769C23.2059 9.77871 24.1034 6.74593 23.0334 4.02515" fill-rule="nonzero" stroke="rgb(0,0,0)" stroke-width="0.75" />
		<line id="Линия 1" x1="0" x2="7.33706045" y1="0" y2="0" stroke="rgb(0,0,0)" stroke-width="0.75" transform="matrix(0,1,-1,0,11.6522,3.55542)" />
		<path id="Форма 3" d="M12.1008 3.15617C12.6405 2.76366 14.3162 1.6532 16.7951 1.56597C19.9393 1.45526 22.0354 3.0723 22.4527 3.40779" fill-rule="nonzero" stroke="rgb(0,0,0)" stroke-width="0.5" />
		<path id="Форма 4" d="M21.9821 4.58545C21.3671 4.97797 19.7103 5.92068 17.2847 5.971C14.9376 6.02132 13.1929 5.2061 12.512 4.85048" fill-rule="nonzero" stroke="rgb(0,0,0)" stroke-width="0.5" />
		<path id="Форма 5" d="M9.35208 21.0075C8.88453 20.7391 7.63878 20.1117 5.96942 20.2426C5.83449 20.2526 4.14002 20.407 2.67776 21.5678C-0.121246 23.792 0.396506 27.7306 0.440436 28.0158" fill-rule="nonzero" stroke="rgb(0,0,0)" stroke-width="0.75" />
		<path id="Форма 6" d="M10.9681 28.7336C10.6292 29.049 8.90959 30.5822 6.10745 30.6862C3.0982 30.7969 1.14957 29.1731 0.832642 28.898" fill-rule="nonzero" stroke="rgb(0,0,0)" stroke-width="0.5" />
		<path id="Форма 7" d="M1.19031 28.1232C1.47586 27.8481 3.20797 26.2377 6.06974 26.2713C8.66164 26.3015 10.3844 27.6602 10.7546 27.9655" fill-rule="nonzero" stroke="rgb(0,0,0)" stroke-width="0.5" />
		<path id="Форма 8" d="M9.16064 0.00268555C9.21085 7.01096 9.26106 14.0226 9.3144 21.0309" stroke="rgb(0,0,0)" stroke-width="0.75" />
		<path id="Форма 9" d="M13.1865 28.9483C13.1489 23.9697 13.1081 18.9944 13.0704 14.0158L13.0704 14.0125C13.0987 14.0058 14.0024 15.4316 14.2691 16.74C14.6896 18.8066 13.2587 19.2393 14.0087 20.645C14.4448 21.4602 15.223 21.8729 15.0693 22.6915C14.9846 23.1377 14.7116 23.2383 14.5358 23.7013C14.357 24.1743 14.3256 24.9124 15.1289 26.0094C15.9102 23.7281 16.6884 21.4435 17.4698 19.1622C18.2354 19.2058 19.0011 19.2494 19.7698 19.2964C20.5763 23.765 21.2415 25.9893 21.7718 25.9725C22.0386 25.9624 22.2708 25.3787 22.4684 24.2179C22.9015 22.5774 23.3345 20.9369 23.7675 19.2964L25.0666 19.2964C24.6681 22.4466 24.2665 25.5968 23.868 28.747C22.6253 28.747 21.3796 28.747 20.137 28.747C19.9079 27.972 19.5784 26.8213 19.205 25.419C18.6277 23.245 18.408 22.1849 18.1381 22.1916C17.9154 22.1983 17.7836 22.9196 17.6047 24.0066C17.3945 25.2881 17.134 26.9991 16.883 29.0556C15.6466 29.0154 14.4166 28.9818 13.1865 28.9483Z" fill="rgb(0,0,0)" fill-rule="nonzero" />
		<path id="Форма 10" d="M28.5686 19.7426C28.5843 20.1754 28.2203 20.5243 27.6366 20.5243C27.1189 20.5243 26.7549 20.1754 26.7549 19.7426C26.7549 19.2931 27.1377 18.9475 27.6712 18.9475C28.2172 18.9475 28.5686 19.2931 28.5686 19.7426ZM26.9369 28.7168L26.9369 21.7085L28.4023 21.7085L28.4023 28.7168L26.9369 28.7168Z" fill="rgb(0,0,0)" fill-rule="nonzero" />
		<path id="Форма 11" d="M30.2756 23.6879C30.2756 22.9632 30.2599 22.3694 30.2097 21.7924L31.5088 21.7924L31.5935 22.9498L31.628 22.9498C32.0266 22.2822 32.9616 21.6313 34.2921 21.6313C35.4092 21.6313 37.1413 22.2117 37.1413 24.6138L37.1413 28.7973L35.6759 28.7973L35.6759 24.7581C35.6759 23.6275 35.1927 22.6881 33.812 22.6881C32.8455 22.6881 32.0956 23.2819 31.8477 23.9898C31.7818 24.1508 31.7473 24.3656 31.7473 24.5836L31.7473 28.7973L30.2819 28.7973L30.2819 23.6879L30.2756 23.6879Z" fill="rgb(0,0,0)" fill-rule="nonzero" />
		<path id="Форма 12" d="M39.6611 25.4526C39.6956 27.177 40.9602 27.8848 42.4256 27.8848C43.4736 27.8848 44.1075 27.7272 44.6566 27.5225L44.9077 28.435C44.3899 28.6363 43.5082 28.8678 42.2248 28.8678C39.7427 28.8678 38.2616 27.4487 38.2616 25.3352C38.2616 23.2216 39.6925 21.5576 42.0428 21.5576C44.6755 21.5576 45.3752 23.5705 45.3752 24.8588C45.3752 25.1205 45.3407 25.3218 45.325 25.4526L39.6611 25.4526L39.6611 25.4526ZM43.9569 24.5401C43.9726 23.7282 43.5741 22.4701 41.9235 22.4701C40.4424 22.4701 39.7929 23.6577 39.6736 24.5401L43.9569 24.5401Z" fill="rgb(0,0,0)" fill-rule="nonzero" />
		<path id="Форма 13" d="M19.6036 10.6846C19.6946 10.8523 18.2574 12.2681 16.4092 12.2681C14.561 12.2681 13.1238 10.8523 13.2148 10.6846C13.2932 10.5403 14.5045 11.426 16.4092 11.426C18.3107 11.426 19.522 10.5403 19.6036 10.6846Z" fill="rgb(0,0,0)" fill-rule="nonzero" />
		<path id="Форма 14" d="M2.27926 23.4731C2.18826 23.3456 3.66307 21.4602 5.73094 21.4602C7.73292 21.4602 9.21401 23.2249 9.12615 23.3591C9.04456 23.4832 7.69213 22.1849 5.7027 22.2016C3.6819 22.2251 2.36398 23.5905 2.27926 23.4731Z" fill="rgb(193,39,45)" fill-rule="nonzero" />
		<g id="Сочетание 2">
			<g id="Сочетание 3">
				<path id="Форма 15" d="M8.01845 39.0499C7.79252 39.0432 7.30615 38.9325 6.7225 38.5735C5.40458 37.765 4.74249 36.2486 4.97155 34.9167C5.20689 33.5681 6.21102 33.2326 7.56973 34.0613C8.01845 34.333 8.40441 34.6819 8.6021 34.9067C8.51424 35.0845 8.42638 35.2589 8.34166 35.4334C8.17221 35.2187 7.89607 34.9536 7.47873 34.702C6.5154 34.1149 5.89096 34.4974 5.74034 35.4166C5.57403 36.4298 6.1012 37.4966 6.96098 38.02C7.4097 38.2917 7.72663 38.342 7.96511 38.3655C7.98079 38.5936 7.99962 38.8218 8.01845 39.0499Z" fill="rgb(29,29,27)" fill-rule="nonzero" />
				<path id="Форма 16" d="M13.2964 39.1672C13.152 40.848 11.8874 41.1701 10.7766 40.687C9.53089 40.1536 8.71817 38.7646 8.90645 37.3556C9.10728 35.8594 10.1522 35.4903 11.3666 36.0103C12.6217 36.5505 13.4156 37.7783 13.2964 39.1672ZM9.71602 37.7381C9.59364 38.7177 10.0675 39.7409 10.8802 40.0898C11.6741 40.432 12.3487 39.912 12.4429 38.8921C12.515 38.1205 12.2263 37.0201 11.2787 36.6176C10.3342 36.2049 9.82272 36.8826 9.71602 37.7381Z" fill="rgb(29,29,27)" fill-rule="nonzero" />
				<path id="Форма 17" d="M14.4292 38.503C14.4668 38.0333 14.4857 37.6475 14.4888 37.2617C14.7273 37.3355 14.9689 37.406 15.2105 37.4697C15.2042 37.718 15.2011 37.9662 15.1948 38.2145C15.2042 38.2179 15.2137 38.2212 15.2231 38.2212C15.5086 37.8589 15.9605 37.5704 16.7167 37.7415C17.3411 37.879 17.7961 38.342 17.975 38.9157C17.9813 38.9157 17.9876 38.919 17.9938 38.919C18.1507 38.6875 18.339 38.5198 18.5367 38.4091C18.8223 38.2447 19.1329 38.1776 19.5722 38.2313C20.1841 38.3118 21.0847 38.7781 21.0596 40.365C21.0439 41.2641 21.0282 42.1632 21.0094 43.0623C20.7238 43.0421 20.4351 43.0186 20.1496 42.9918C20.1715 42.1263 20.1935 41.2641 20.2155 40.3985C20.2374 39.5162 19.9236 38.9626 19.2396 38.8721C18.7595 38.8083 18.3704 39.0968 18.2072 39.4793C18.1633 39.5866 18.1288 39.7309 18.1225 39.8852C18.0817 40.8279 18.0378 41.7673 17.997 42.71C17.7114 42.663 17.429 42.6094 17.1435 42.5557C17.1905 41.6432 17.2376 40.7306 17.2878 39.8181C17.3255 39.0901 17.0274 38.503 16.3904 38.3554C15.8695 38.2346 15.4616 38.5466 15.2984 38.9224C15.2419 39.0331 15.2137 39.1673 15.2042 39.3082C15.1384 40.2241 15.0725 41.1399 15.0097 42.0558C14.7304 41.9786 14.448 41.9015 14.1719 41.8176C14.2535 40.7105 14.3413 39.6068 14.4292 38.503Z" fill="rgb(29,29,27)" fill-rule="nonzero" />
				<path id="Форма 18" d="M22.4591 40.0394C22.4622 39.4523 22.4465 38.9793 22.4277 38.5431C22.6819 38.5498 22.936 38.5532 23.1871 38.5532C23.1996 38.8149 23.2122 39.0765 23.2279 39.3382C23.2341 39.3382 23.2404 39.3382 23.2467 39.3382C23.595 38.778 24.141 38.4425 24.8972 38.3989C26.0175 38.3318 26.8898 39.147 26.9431 40.5326C27.0059 42.1697 25.9735 43.1225 24.825 43.1862C24.1818 43.2231 23.6169 42.9682 23.3283 42.5153C23.322 42.5153 23.3157 42.5153 23.3094 42.5153C23.3126 43.3439 23.3126 44.1726 23.3126 45.0012C23.0176 45.0046 22.7227 45.0012 22.4246 44.9979C22.4402 43.3439 22.4496 41.69 22.4591 40.0394ZM23.3094 41.2639C23.3094 41.388 23.3283 41.4987 23.3502 41.6027C23.5103 42.1798 24.0406 42.5689 24.6681 42.5354C25.597 42.4851 26.1147 41.7067 26.0865 40.66C26.0614 39.7442 25.5468 39.0195 24.6493 39.0665C24.0688 39.0967 23.5322 39.5093 23.3659 40.1333C23.3377 40.2373 23.3094 40.3615 23.3094 40.4755C23.3094 40.7405 23.3094 41.0022 23.3094 41.2639Z" fill="rgb(29,29,27)" fill-rule="nonzero" />
				<path id="Форма 19" d="M30.7776 42.153C30.7431 41.9684 30.7055 41.7839 30.6709 41.5994C30.6615 41.6028 30.6521 41.6028 30.6427 41.6061C30.4042 42.0288 29.9116 42.4717 29.2275 42.6126C28.2548 42.8071 27.7307 42.2234 27.7056 41.5659C27.6617 40.4554 28.6533 39.7408 30.4419 39.3114C30.4387 39.2812 30.4387 39.2477 30.4356 39.2175C30.4105 38.8417 30.263 38.2076 29.3216 38.4123C28.8918 38.5029 28.4525 38.7176 28.1324 38.9793C28.0602 38.8082 27.988 38.6371 27.9159 38.466C28.2893 38.1607 28.8321 37.9024 29.4095 37.7749C30.8059 37.4629 31.2107 38.2815 31.2797 39.1906C31.3205 39.7542 31.3644 40.3145 31.4052 40.8781C31.4334 41.2706 31.4837 41.6464 31.5652 41.9383C31.2985 42.0154 31.0381 42.0859 30.7776 42.153ZM30.4952 39.8784C29.5727 40.0964 28.5215 40.4487 28.5623 41.331C28.5874 41.8678 28.9765 42.0523 29.4189 41.9584C30.0402 41.8275 30.4073 41.3545 30.5172 40.9351C30.5391 40.8446 30.5548 40.7439 30.5486 40.66C30.5297 40.4017 30.5109 40.14 30.4952 39.8784Z" fill="rgb(29,29,27)" fill-rule="nonzero" />
				<path id="Форма 20" d="M32.5756 38.2648C32.5348 37.8019 32.494 37.4228 32.4313 37.0605C32.6729 36.9799 32.9145 36.8994 33.153 36.8122C33.1906 37.0537 33.2314 37.2953 33.2691 37.5368C33.2754 37.5335 33.2816 37.5335 33.2879 37.5301C33.473 37.0236 33.9469 36.423 34.6749 36.1178C35.2836 35.8695 36.2595 35.789 36.4509 37.2987C36.5607 38.1776 36.6706 39.0566 36.7773 39.9356C36.5043 40.0698 36.2281 40.2006 35.9551 40.3247C35.8547 39.4726 35.7574 38.6205 35.657 37.7683C35.5723 37.0504 35.2428 36.5841 34.4835 36.8994C33.9532 37.1175 33.5735 37.6476 33.4762 38.1541C33.448 38.2682 33.4417 38.4158 33.4574 38.5534C33.5421 39.4525 33.6268 40.3482 33.7147 41.2439C33.4323 41.3479 33.1499 41.4452 32.8674 41.5392C32.767 40.4489 32.6729 39.3552 32.5756 38.2648Z" fill="rgb(29,29,27)" fill-rule="nonzero" />
				<path id="Форма 21" d="M37.7783 34.7053C38.2082 35.3964 38.6444 36.074 39.0868 36.7417C39.228 36.9698 39.3849 37.2449 39.4979 37.463C39.5041 37.4596 39.5104 37.4562 39.5167 37.4529C39.5575 37.1442 39.5951 36.7551 39.6516 36.3726C39.7991 35.346 39.9403 34.3161 40.0721 33.2895C40.3325 33.1117 40.593 32.9305 40.8503 32.7427C40.6589 34.0276 40.4549 35.3125 40.2353 36.594C39.9215 38.4426 39.6453 39.4524 39.1652 40.2475C38.8201 40.8245 38.4373 41.1835 38.2364 41.3311C38.136 41.1432 38.0387 40.9587 37.9415 40.7708C38.1392 40.5964 38.3902 40.3246 38.6004 39.9892C38.7981 39.6939 39.0272 39.2243 39.1464 38.711C39.1715 38.607 39.1872 38.5298 39.1809 38.4828C39.1747 38.4392 39.1464 38.3855 39.0962 38.3084C38.3619 37.2919 37.6402 36.2418 36.9342 35.1649C37.2166 35.0173 37.499 34.8629 37.7783 34.7053Z" fill="rgb(29,29,27)" fill-rule="nonzero" />
			</g>
		</g>
	</g>
</svg>
