<?xml version="1.0" encoding="utf-8"?>
<!-- Generator: Adobe Illustrator 27.9.0, SVG Export Plug-In . SVG Version: 6.00 Build 0)  -->
<svg version="1.1" id="Слой_1" xmlns="http://www.w3.org/2000/svg" xmlns:xlink="http://www.w3.org/1999/xlink" x="0px" y="0px"
	 viewBox="0 0 595.28 841.89" style="enable-background:new 0 0 595.28 841.89;" xml:space="preserve">
<style type="text/css">
	.st0{fill:none;stroke:#000000;stroke-width:0.75;stroke-miterlimit:10;}
	.st1{fill:none;stroke:#000000;stroke-width:0.5;stroke-miterlimit:10;}
	.st2{fill:#C1272D;}
	.st3{fill:#1D1D1B;}
	.st4{fill:none;}
</style>
<g>
	<path class="st0" d="M268.38,211.79c0.17,17.01,0.33,34.03,0.5,51.04"/>
	<path class="st0" d="M268.38,212.25c8.91,5.38,20.92,5.02,29.09-0.75c7.6-5.36,10.46-14.4,7.05-22.51"/>
	<line class="st0" x1="268.25" y1="187.59" x2="268.25" y2="209.46"/>
	<path class="st1" d="M269.68,186.4c1.72-1.17,7.06-4.48,14.96-4.74c10.02-0.33,16.7,4.49,18.03,5.49"/>
	<path class="st1" d="M301.17,190.66c-1.96,1.17-7.24,3.98-14.97,4.13c-7.48,0.15-13.04-2.28-15.21-3.34"/>
	<path class="st0" d="M260.92,239.61c-1.49-0.8-5.46-2.67-10.78-2.28c-0.43,0.03-5.83,0.49-10.49,3.95
		c-8.92,6.63-7.27,18.37-7.13,19.22"/>
	<path class="st1" d="M266.07,262.64c-1.08,0.94-6.56,5.51-15.49,5.82c-9.59,0.33-15.8-4.51-16.81-5.33"/>
	<path class="st1" d="M234.91,260.82c0.91-0.82,6.43-5.62,15.55-5.52c8.26,0.09,13.75,4.14,14.93,5.05"/>
	<path class="st0" d="M260.31,177c0.16,20.89,0.32,41.79,0.49,62.68"/>
	<path d="M273.14,263.28c-0.12-14.84-0.25-29.67-0.37-44.51c0,0,0-0.01,0-0.01c0.09-0.02,2.97,4.23,3.82,8.13
		c1.34,6.16-3.22,7.45-0.83,11.64c1.39,2.43,3.87,3.66,3.38,6.1c-0.27,1.33-1.14,1.63-1.7,3.01c-0.57,1.41-0.67,3.61,1.89,6.88
		c2.49-6.8,4.97-13.61,7.46-20.41c2.44,0.13,4.88,0.26,7.33,0.4c2.57,13.32,4.69,19.95,6.38,19.9c0.85-0.03,1.59-1.77,2.22-5.23
		c1.38-4.89,2.76-9.78,4.14-14.67h4.14c-1.27,9.39-2.55,18.78-3.82,28.17c-3.96,0-7.93,0-11.89,0c-0.73-2.31-1.78-5.74-2.97-9.92
		c-1.84-6.48-2.54-9.64-3.4-9.62c-0.71,0.02-1.13,2.17-1.7,5.41c-0.67,3.82-1.5,8.92-2.3,15.05
		C280.98,263.48,277.06,263.38,273.14,263.28z"/>
	<path d="M322.16,235.84c0.05,1.29-1.11,2.33-2.97,2.33c-1.65,0-2.81-1.04-2.81-2.33c0-1.34,1.22-2.37,2.92-2.37
		C321.04,233.47,322.16,234.5,322.16,235.84z M316.96,262.59v-20.89h4.67v20.89H316.96z"/>
	<path d="M327.6,247.6c0-2.16-0.05-3.93-0.21-5.65h4.14l0.27,3.45h0.11c1.27-1.99,4.25-3.93,8.49-3.93c3.56,0,9.08,1.73,9.08,8.89
		v12.47h-4.67v-12.04c0-3.37-1.54-6.17-5.94-6.17c-3.08,0-5.47,1.77-6.26,3.88c-0.21,0.48-0.32,1.12-0.32,1.77v12.56h-4.67V247.6z"
		/>
	<path d="M357.51,252.86c0.11,5.14,4.14,7.25,8.81,7.25c3.34,0,5.36-0.47,7.11-1.08l0.8,2.72c-1.65,0.6-4.46,1.29-8.55,1.29
		c-7.91,0-12.63-4.23-12.63-10.53c0-6.3,4.56-11.26,12.05-11.26c8.39,0,10.62,6,10.62,9.84c0,0.78-0.11,1.38-0.16,1.77H357.51z
		 M371.2,250.14c0.05-2.42-1.22-6.17-6.48-6.17c-4.72,0-6.79,3.54-7.17,6.17H371.2z"/>
	<path d="M293.59,208.84c0.29,0.5-4.29,4.72-10.18,4.72s-10.47-4.22-10.18-4.72c0.25-0.43,4.11,2.21,10.18,2.21
		C289.47,211.05,293.33,208.41,293.59,208.84z"/>
	<path class="st2" d="M238.38,246.96c-0.29-0.38,4.41-6,11-6c6.38,0,11.1,5.26,10.82,5.66c-0.26,0.37-4.57-3.5-10.91-3.45
		C242.85,243.24,238.65,247.31,238.38,246.96z"/>
	<g>
		<g>
			<path class="st3" d="M256.67,293.39c-0.72-0.02-2.27-0.35-4.13-1.42c-4.2-2.41-6.31-6.93-5.58-10.9
				c0.75-4.02,3.95-5.02,8.28-2.55c1.43,0.81,2.66,1.85,3.29,2.52c-0.28,0.53-0.56,1.05-0.83,1.57c-0.54-0.64-1.42-1.43-2.75-2.18
				c-3.07-1.75-5.06-0.61-5.54,2.13c-0.53,3.02,1.15,6.2,3.89,7.76c1.43,0.81,2.44,0.96,3.2,1.03
				C256.55,292.03,256.61,292.71,256.67,293.39z"/>
			<path class="st3" d="M273.49,293.74c-0.46,5.01-4.49,5.97-8.03,4.53c-3.97-1.59-6.56-5.73-5.96-9.93
				c0.64-4.46,3.97-5.56,7.84-4.01C271.34,285.94,273.87,289.6,273.49,293.74z M262.08,289.48c-0.39,2.92,1.12,5.97,3.71,7.01
				c2.53,1.02,4.68-0.53,4.98-3.57c0.23-2.3-0.69-5.58-3.71-6.78C264.05,284.91,262.42,286.93,262.08,289.48z"/>
			<path class="st3" d="M277.1,291.76c0.12-1.4,0.18-2.55,0.19-3.7c0.76,0.22,1.53,0.43,2.3,0.62c-0.02,0.74-0.03,1.48-0.05,2.22
				c0.03,0.01,0.06,0.02,0.09,0.02c0.91-1.08,2.35-1.94,4.76-1.43c1.99,0.41,3.44,1.79,4.01,3.5c0.02,0,0.04,0.01,0.06,0.01
				c0.5-0.69,1.1-1.19,1.73-1.52c0.91-0.49,1.9-0.69,3.3-0.53c1.95,0.24,4.82,1.63,4.74,6.36c-0.05,2.68-0.1,5.36-0.16,8.04
				c-0.91-0.06-1.83-0.13-2.74-0.21c0.07-2.58,0.14-5.15,0.21-7.73c0.07-2.63-0.93-4.28-3.11-4.55c-1.53-0.19-2.77,0.67-3.29,1.81
				c-0.14,0.32-0.25,0.75-0.27,1.21c-0.13,2.81-0.27,5.61-0.4,8.42c-0.91-0.14-1.81-0.3-2.72-0.46c0.15-2.72,0.3-5.44,0.46-8.16
				c0.12-2.17-0.83-3.92-2.86-4.36c-1.66-0.36-2.96,0.57-3.48,1.69c-0.18,0.33-0.27,0.73-0.3,1.15c-0.21,2.73-0.42,5.46-0.62,8.19
				c-0.89-0.23-1.79-0.46-2.67-0.71C276.54,298.34,276.82,295.05,277.1,291.76z"/>
			<path class="st3" d="M302.69,296.34c0.01-1.75-0.04-3.16-0.1-4.46c0.81,0.02,1.62,0.03,2.42,0.03c0.04,0.78,0.08,1.56,0.13,2.34
				c0.02,0,0.04,0,0.06,0c1.11-1.67,2.85-2.67,5.26-2.8c3.57-0.2,6.35,2.23,6.52,6.36c0.2,4.88-3.09,7.72-6.75,7.91
				c-2.05,0.11-3.85-0.65-4.77-2c-0.02,0-0.04,0-0.06,0c0.01,2.47,0.01,4.94,0.01,7.41c-0.94,0.01-1.88,0-2.83-0.01
				C302.63,306.19,302.66,301.26,302.69,296.34z M305.4,299.99c0,0.37,0.06,0.7,0.13,1.01c0.51,1.72,2.2,2.88,4.2,2.78
				c2.96-0.15,4.61-2.47,4.52-5.59c-0.08-2.73-1.72-4.89-4.58-4.75c-1.85,0.09-3.56,1.32-4.09,3.18c-0.09,0.31-0.18,0.68-0.18,1.02
				C305.4,298.43,305.4,299.21,305.4,299.99z"/>
			<path class="st3" d="M329.2,302.64c-0.11-0.55-0.23-1.1-0.34-1.65c-0.03,0.01-0.06,0.01-0.09,0.02c-0.76,1.26-2.33,2.58-4.51,3
				c-3.1,0.58-4.77-1.16-4.85-3.12c-0.14-3.31,3.02-5.44,8.72-6.72c-0.01-0.09-0.01-0.19-0.02-0.28c-0.08-1.12-0.55-3.01-3.55-2.4
				c-1.37,0.27-2.77,0.91-3.79,1.69c-0.23-0.51-0.46-1.02-0.69-1.53c1.19-0.91,2.92-1.68,4.76-2.06c4.45-0.93,5.74,1.51,5.96,4.22
				c0.13,1.68,0.27,3.35,0.4,5.03c0.09,1.17,0.25,2.29,0.51,3.16C330.86,302.23,330.03,302.44,329.2,302.64z M328.3,295.86
				c-2.94,0.65-6.29,1.7-6.16,4.33c0.08,1.6,1.32,2.15,2.73,1.87c1.98-0.39,3.15-1.8,3.5-3.05c0.07-0.27,0.12-0.57,0.1-0.82
				C328.41,297.42,328.35,296.64,328.3,295.86z"/>
			<path class="st3" d="M334.93,291.05c-0.13-1.38-0.26-2.51-0.46-3.59c0.77-0.24,1.54-0.48,2.3-0.74c0.12,0.72,0.25,1.44,0.37,2.16
				c0.02-0.01,0.04-0.01,0.06-0.02c0.59-1.51,2.1-3.3,4.42-4.21c1.94-0.74,5.05-0.98,5.66,3.52c0.35,2.62,0.7,5.24,1.04,7.86
				c-0.87,0.4-1.75,0.79-2.62,1.16c-0.32-2.54-0.63-5.08-0.95-7.62c-0.27-2.14-1.32-3.53-3.74-2.59c-1.69,0.65-2.9,2.23-3.21,3.74
				c-0.09,0.34-0.11,0.78-0.06,1.19c0.27,2.68,0.54,5.35,0.82,8.02c-0.9,0.31-1.8,0.6-2.7,0.88
				C335.54,297.56,335.24,294.3,334.93,291.05z"/>
			<path class="st3" d="M351.51,280.44c1.37,2.06,2.76,4.08,4.17,6.07c0.45,0.68,0.95,1.5,1.31,2.15c0.02-0.01,0.04-0.02,0.06-0.03
				c0.13-0.92,0.25-2.08,0.43-3.22c0.47-3.06,0.92-6.13,1.34-9.19c0.83-0.53,1.66-1.07,2.48-1.63c-0.61,3.83-1.26,7.66-1.96,11.48
				c-1,5.51-1.88,8.52-3.41,10.89c-1.1,1.72-2.32,2.79-2.96,3.23c-0.32-0.56-0.63-1.11-0.94-1.67c0.63-0.52,1.43-1.33,2.1-2.33
				c0.63-0.88,1.36-2.28,1.74-3.81c0.08-0.31,0.13-0.54,0.11-0.68c-0.02-0.13-0.11-0.29-0.27-0.52c-2.34-3.03-4.64-6.16-6.89-9.37
				C349.72,281.37,350.62,280.91,351.51,280.44z"/>
		</g>
	</g>
</g>
<rect x="200.66" y="155.14" class="st4" width="192.94" height="190"/>
</svg>
